<svg width="57" height="24" viewBox="0 0 57 24" fill="none" xmlns="http://www.w3.org/2000/svg">
<path fill-rule="evenodd" clip-rule="evenodd" d="M6.22223 6.02756C2.80003 9.34277 0 12.0729 0 12.0945C0 12.1162 1.70485 13.789 3.78856 15.812L7.57711 19.4901L9.01051 18.1034L10.4439 16.7167L9.41309 15.723C8.84618 15.1765 7.76796 14.1389 7.01707 13.4173L5.65186 12.1053L11.6817 6.26206C14.9981 3.04832 17.8065 0.324632 17.9226 0.209414L18.1337 0H15.2891H12.4445L6.22223 6.02756ZM25.7859 0.0228271C25.7468 0.0306316 25.555 0.0613534 25.3596 0.0911278C23.9688 0.303248 22.4242 1.15002 21.51 2.20155C20.7735 3.04881 20.34 3.86341 20.0648 4.91729L19.9411 5.39098L19.9154 11.7519L19.8897 18.1128L19.784 18.4093C19.4941 19.2219 18.6987 19.908 17.8525 20.0754C17.6916 20.1072 17.018 20.1199 15.9525 20.1112L14.3018 20.0977L13.9703 19.9485C13.6767 19.8162 13.5184 19.6849 12.5849 18.7992L11.531 17.7992L11.1016 18.2041C10.8653 18.4268 10.2284 19.0458 9.6861 19.5797L8.70009 20.5504L9.74876 21.5714C10.3575 22.1642 10.958 22.7044 11.1803 22.8593C11.9733 23.4118 12.9678 23.7993 13.9377 23.9337C14.3869 23.9959 14.7767 24.0046 16.3529 23.9878C18.0378 23.9697 18.2769 23.9579 18.6626 23.874C19.2813 23.7394 19.6314 23.6214 20.2214 23.3483C22.0477 22.5033 23.3009 20.9982 23.8105 19.0376C23.9088 18.6595 23.9106 18.5646 23.9368 12.2932L23.9633 5.93233L24.0743 5.61654C24.2247 5.18842 24.4489 4.84859 24.7772 4.55089C25.098 4.26009 25.3598 4.1072 25.7859 3.96203L26.0937 3.85714L29.3661 3.84388C33.0252 3.82899 33.0442 3.8303 33.692 4.13409C34.1423 4.34522 34.6053 4.7806 34.8187 5.19352C35.0993 5.73641 35.1137 5.87116 35.1145 7.95564L35.1152 9.84361L34.9592 9.99221L34.8031 10.1409L33.2898 10.1623C31.9465 10.1814 31.7323 10.1945 31.3826 10.2799C30.1198 10.5881 29.1185 11.3648 28.5543 12.4737C28.2607 13.0509 28.1508 13.4587 28.1197 14.0865C28.068 15.127 28.3344 15.9699 28.9679 16.7712C29.2328 17.1063 36.2887 23.9323 36.3701 23.9323C36.443 23.9323 39.2005 21.2612 39.1812 21.2092C39.1718 21.1841 37.6109 19.6651 35.7124 17.8338C33.8139 16.0024 32.2283 14.4571 32.1889 14.3998C32.1235 14.3047 32.1255 14.285 32.2123 14.1741L32.3075 14.0526L33.8179 14.0255C35.5684 13.9941 35.8012 13.957 36.6069 13.5807C37.8659 12.9928 38.7426 11.9375 39.0778 10.6063C39.1763 10.2153 39.2251 6.62928 39.1434 5.7937C38.9995 4.32275 38.3968 3.03059 37.3748 2.00211C36.4164 1.03755 35.2822 0.42203 33.8839 0.107459C33.5613 0.0349173 33.1766 0.0267068 29.6928 0.0181354C27.5831 0.0129474 25.8249 0.0150677 25.7859 0.0228271ZM40.2833 1.43526C44.8374 5.83516 51.242 12.0521 51.2534 12.0839C51.2607 12.1041 48.5169 14.7829 45.1562 18.0368C41.7955 21.2907 39.0458 23.9635 39.0458 23.9765C39.0458 23.9894 40.3198 24 41.8769 24H44.7079L49.4895 19.3674C52.1193 16.8195 54.8851 14.141 55.6355 13.4151L57 12.0955L50.7578 6.04877L44.5155 0.00207517L41.6566 0.00103763L38.7977 0L40.2833 1.43526Z" fill="black"/>
</svg>
